<?xml version="1.0"?>
<svg xmlns="http://www.w3.org/2000/svg" viewBox="0 0 64 64" width="512" height="512"><g id="solid"><rect fill="#DB2763"  x="15" y="46" width="43" height="4"/><path fill="#DB2763" d="M15,44.006h2V38h3v6.006h2V38H33v6h2V38h3v6h2V38h9V34H39.985a3.117,3.117,0,0,0-.1-.606L35.222,15.331a3.167,3.167,0,0,0-4.714-1.857,3.148,3.148,0,0,0-.832.781A3.16,3.16,0,0,0,24,16.18V32h2V16.18a1.168,1.168,0,0,1,2.29-.332L29,18.6V32h2V26.336l1.957,7.573c.008.03.006.061.012.091H21.984a3.1,3.1,0,0,0-.1-.6L17.222,15.337a3.178,3.178,0,0,0-1.635-1.991,3.08,3.08,0,0,0-3.911.915A3.16,3.16,0,0,0,6,16.187V32.006H8V16.187a1.169,1.169,0,0,1,1.69-1.054,1.168,1.168,0,0,1,.6.721L11,18.6v13.4h2V26.343l1.957,7.571c.007.029.006.057.011.086H6v4h9ZM31,18.343V16.18a1.168,1.168,0,0,1,2.29-.332l4.667,18.061c.008.03.006.061.012.091H34.985a3.117,3.117,0,0,0-.1-.606Zm-18,.006V16.187a1.169,1.169,0,0,1,1.69-1.054,1.168,1.168,0,0,1,.6.721l4.667,18.06c.007.029.006.057.011.086H16.984a3.1,3.1,0,0,0-.1-.6Z"/><path fill="#DB2763" d="M58,34.232a3.183,3.183,0,0,0-.111-.833L53.222,15.337a3.178,3.178,0,0,0-1.635-1.991,3.08,3.08,0,0,0-3.911.915A3.16,3.16,0,0,0,42,16.187V32.006h2V16.187a1.169,1.169,0,0,1,1.69-1.054,1.168,1.168,0,0,1,.6.721L47,18.6v13.4h2V26.343l1.957,7.571a1.242,1.242,0,0,1,.043.318v9.774h2V34.232a3.183,3.183,0,0,0-.111-.833L49,18.349V16.187a1.169,1.169,0,0,1,1.69-1.054,1.168,1.168,0,0,1,.6.721l4.667,18.06a1.242,1.242,0,0,1,.043.318v9.774h2Z"/><rect fill="#DB2763"  x="2" y="34" width="2" height="4"/><rect fill="#DB2763"  x="11" y="46" width="2" height="4"/><rect fill="#DB2763"  x="60" y="46" width="2" height="4"/></g></svg>
