<svg height="512" viewBox="0 0 48 58" width="512" xmlns="http://www.w3.org/2000/svg"><g id="Page-1" fill="none" fill-rule="evenodd"><g id="018---Bike-Hire-Location" fill-rule="nonzero"><path id="Shape" d="m47.676 28.254c-2.596 16.984-20.025 27.808-23.185 29.616-.3057984.1760777-.6822016.1760777-.988 0-3.435-1.97-23.503-14.434-23.503-33.87.00009261-6.4554611 2.60075958-12.6387018 7.21477229-17.15355119 4.61401271-4.51484935 10.85228791-6.98058611 17.30622771-6.84044881 14.585.308 25.36 13.826 23.155 28.248z" fill="#f0c419"/><path id="Shape" d="m29.666 46.76c-1.6224903 1.4169073-3.3253152 2.7391007-5.1 3.96-.3375001.2325015-.7834999.2325015-1.121 0-1.7732971-1.222078-3.476019-2.5435237-5.1-3.958-.3189745-.2710714-.4353601-.712129-.2916623-1.1052898.1436978-.3931607.5170668-.655216.9356623-.6567102h10.023c.4194327-.0017141.7953642.2585021.9414623.6516714s.0313127.8357314-.2874623 1.1083286z" fill="#e57e25"/><circle id="Oval" cx="23.5" cy="26.5" fill="#ecf0f1" r="2.5"/><circle id="Oval" cx="11" cy="27" fill="#bdc3c7" r="7"/><circle id="Oval" cx="37" cy="27" fill="#bdc3c7" r="7"/><path id="Shape" d="m11 35c-4.418278 0-8-3.581722-8-8s3.581722-8 8-8 8 3.581722 8 8c-.0049599 4.4162219-3.5837781 7.9950401-8 8zm0-14c-3.3137085 0-6 2.6862915-6 6s2.6862915 6 6 6 6-2.6862915 6-6c-.0033074-3.3123376-2.6876624-5.9966926-6-6z" fill="#464f5d"/><path id="Shape" d="m37 35c-4.418278 0-8-3.581722-8-8s3.581722-8 8-8 8 3.581722 8 8c-.0049599 4.4162219-3.5837781 7.9950401-8 8zm0-14c-3.3137085 0-6 2.6862915-6 6s2.6862915 6 6 6 6-2.6862915 6-6c-.0033074-3.3123376-2.6876624-5.9966926-6-6z" fill="#464f5d"/><path id="Shape" d="m16.37 16.267c-.319404-.1638245-.7021122-.1438828-1.0027599.0522505-.3006478.1961333-.4731045.5383641-.4518657.8967023s.2329144.6778013.5546256.8370472c2.7114794 1.3698527 4.6623579 3.8874114 5.312 6.855.0981135.4613844.5052993.7914675.977.792.0699168.0000545.1396416-.0073202.208-.022.5400217-.1144873.885127-.644902.771-1.185-.7780189-3.5599229-3.1165819-6.5808116-6.368-8.226z" fill="#2980ba"/><path id="Shape" d="m37.716 26.3-7.8-8.246 1.96-3.487c.1750601-.3115356.1706201-.6927998-.0116476-1.0001742-.1822676-.3073743-.5146721-.4941612-.872-.49-.3573278.0041613-.6852923.1986386-.8603524.5101742l-5.9 10.5c-.1835732.3119551-.1842418.6987586-.001748 1.0113464.1824937.3125878.5196589.5021586.8815606.4956566s.6920398-.2080617.8631874-.527003l2.915-5.187 5.787 6.12h-8.727c-.5522847 0-1 .4477153-1 1s.4477153 1 1 1h11.05c.4029806.0007491.7670346-.240459.9234534-.6118443.1564188-.3713854.0746342-.8003702-.2074534-1.0881557z" fill="#2980ba"/><path id="Shape" d="m34 15h-6c-.5522847 0-1-.4477153-1-1s.4477153-1 1-1h6c.5522847 0 1 .4477153 1 1s-.4477153 1-1 1z" fill="#464f5d"/><path id="Shape" d="m21.56 33c-.1293157.0004227-.257439-.0247262-.377-.074-.5096869-.2082948-.7551015-.7894223-.549-1.3l1.26-3.09c.1338489-.3323271.4352548-.5676571.7901227-.6169076s.7089685.0951048.9282597.3784212c.2192913.2833165.270262.6622989.1336176.9934864l-1.26 3.089c-.1542374.3754413-.5201119.6204113-.926.62z" fill="#bdc3c7"/><path id="Shape" d="m24 33h-4c-.5522847 0-1-.4477153-1-1s.4477153-1 1-1h4c.5522847 0 1 .4477153 1 1s-.4477153 1-1 1z" fill="#e57e25"/><path id="Shape" d="m11 28c-.3464401-.000185-.6681037-.1796678-.8501945-.4743943-.18209089-.2947265-.1986643-.6627032-.0438055-.9726057l5.266-10.531c.5697915-1.1438757.8672132-2.4040678.869-3.682-.000552-.7402233-.6007765-1.3400002-1.341-1.34h-2.9c-.5522847 0-1 .4477153-1 1s.4477153 1 1 1h1c.5522847 0 1 .4477153 1 1s-.4477153 1-1 1h-1c-1.6568542 0-3-1.3431458-3-3s1.3431458-3 3-3h2.9c1.8439455.00165401 3.338346 1.4960545 3.34 3.34-.0017642 1.5885915-.3714226 3.1551899-1.08 4.577l-5.26 10.53c-.1702259.3406694-.5191744.5550788-.9.553z" fill="#3b97d3"/><path id="Shape" d="m23.5 30c-1.4156179 0-2.6918449-.8527476-3.2335784-2.160608s-.2422883-2.8132727.7587047-3.8142657 2.5064053-1.3004382 3.8142657-.7587047 2.160608 1.8179605 2.160608 3.2335784c0 1.9329966-1.5670034 3.5-3.5 3.5zm0-5c-.8284271 0-1.5.6715729-1.5 1.5s.6715729 1.5 1.5 1.5 1.5-.6715729 1.5-1.5-.6715729-1.5-1.5-1.5z" fill="#464f5d"/></g></g></svg>