<svg id="Icons" height="512" viewBox="0 0 60 60" width="512" xmlns="http://www.w3.org/2000/svg"><path d="m53.676 29.254c-2.596 16.984-20.025 27.808-23.185 29.616a.99.99 0 0 1 -.988 0c-3.435-1.97-23.503-14.434-23.503-33.87a24 24 0 0 1 24.521-23.994c14.585.308 25.36 13.826 23.155 28.248z" fill="#e8edfc"/><path d="m30.521 1c-.683-.014-1.357.008-2.025.049 14.086.876 24.336 14.1 22.18 28.2-2.391 15.651-17.358 26.06-22.176 29.019.409.252.754.456 1 .6a.99.99 0 0 0 .988 0c3.16-1.808 20.589-12.632 23.185-29.616 2.208-14.42-8.567-27.938-23.152-28.252z" fill="#cad9fc"/><circle cx="17" cy="28" fill="#a4c2f7" r="7"/><path d="m17 21a7 7 0 0 0 -1.5.165 7 7 0 0 1 0 13.67 7 7 0 1 0 1.5-13.835z" fill="#7facfa"/><circle cx="43" cy="28" fill="#a4c2f7" r="7"/><path d="m43 21a7 7 0 0 0 -1.5.165 7 7 0 0 1 0 13.67 7 7 0 1 0 1.5-13.835z" fill="#7facfa"/><circle cx="29.5" cy="27.5" fill="#a4c2f7" r="2.5"/><path d="m37.58 46a55.111 55.111 0 0 1 -7.58 6.1 55.884 55.884 0 0 1 -7.58-6.1z" fill="#a4c2f7"/><path d="m30.491 58.87c.249-.143.6-.348 1.009-.6-5.243-3.219-22.5-15.242-22.5-33.27a24 24 0 0 1 22.5-23.946c-.324-.02-.647-.042-.975-.049a24 24 0 0 0 -24.525 23.995c0 19.436 20.068 31.9 23.5 33.866a.99.99 0 0 0 .991.004z" fill="#fff"/><path d="m8.122 32.613-1.923.55-.3-.987-.199-1.016-.384-2.033c-.196-1.364-.208-2.752-.316-4.127h2c.108 1.281.113 2.573.3 3.844l.36 1.9.179.948z" fill="#fff"/><g fill="#428dff"><path d="m19.651 20.461a7.974 7.974 0 1 0 1.791.89l.9-1.8a10.094 10.094 0 0 1 4.321 5.914 3.479 3.479 0 0 0 .88 4.929l-.655 1.606h-.888a1 1 0 0 0 0 2h4a1 1 0 0 0 0-2h-.952l.409-1h.043a3.5 3.5 0 0 0 3.149-2h2.42a8.017 8.017 0 1 0 3.209-7.443l-2.366-2.5 1.718-3.057h2.37a1 1 0 0 0 0-2h-6a1 1 0 0 0 0 2h1.336l-4.624 8.229a3.277 3.277 0 0 0 -2.328-.03 12.159 12.159 0 0 0 -5.158-6.437 10.278 10.278 0 0 0 1.014-4.422 3.343 3.343 0 0 0 -3.34-3.34h-2.9a3 3 0 0 0 0 6h1a1 1 0 0 0 0-2h-1a1 1 0 0 1 0-2h2.9a1.341 1.341 0 0 1 1.34 1.34 8.269 8.269 0 0 1 -.87 3.682zm3.349 7.539a6 6 0 1 1 -4.249-5.738l-2.646 5.291a1 1 0 0 0 1.79.894l2.641-5.283a5.986 5.986 0 0 1 2.464 4.836zm17.677-1h-3.587a5.954 5.954 0 0 1 1.123-2.6zm2.323-5a6 6 0 1 1 -5.91 7h5.91a1 1 0 0 0 .914-.609 1.013 1.013 0 0 0 -.2-1.088l-4.056-4.285a5.967 5.967 0 0 1 3.342-1.018zm-6.18.926a7.969 7.969 0 0 0 -1.751 4.074h-2.12a3.456 3.456 0 0 0 -.628-1.552l2.565-4.565zm-5.82 4.574a1.5 1.5 0 1 1 -1.5-1.5 1.5 1.5 0 0 1 1.5 1.5z"/><path d="m6.875 35.323c.257.707.584 1.386.874 2.08a37.6 37.6 0 0 0 2.051 4.005 46.687 46.687 0 0 0 5.385 7.145 60.407 60.407 0 0 0 13.821 11.181 2 2 0 0 0 .994.266 1.975 1.975 0 0 0 .986-.265c2.136-1.222 20.945-12.458 23.677-30.332a25.843 25.843 0 0 0 -5.763-20.528 24.893 24.893 0 0 0 -43.9 16.125 1 1 0 0 0 2 0 23 23 0 0 1 23.5-22.995 22.411 22.411 0 0 1 16.867 8.157 23.844 23.844 0 0 1 5.321 18.938c-2.588 16.95-20.644 27.729-22.688 28.9a58.482 58.482 0 0 1 -13.332-10.794 44.656 44.656 0 0 1 -5.149-6.828 35.546 35.546 0 0 1 -1.942-3.785c-.271-.654-.582-1.294-.824-1.957l-.631-2.023a1.061 1.061 0 0 0 -1.257-.68.946.946 0 0 0 -.666 1.23z"/><path d="m6.323 29.986a1 1 0 0 1 -.01-2h.01a1 1 0 0 1 0 2z"/><path d="m37.58 45h-15.16a1 1 0 0 0 -.7 1.719 56.555 56.555 0 0 0 7.716 6.211 1 1 0 0 0 1.115 0 56.355 56.355 0 0 0 7.719-6.213 1 1 0 0 0 -.69-1.717zm-7.58 5.891a56.105 56.105 0 0 1 -5.015-3.891h10.03a55.239 55.239 0 0 1 -5.015 3.891z"/></g></svg>